<svg width="1520" height="670" viewBox="0 0 1520 670" fill="none" xmlns="http://www.w3.org/2000/svg">
<path fill-rule="evenodd" clip-rule="evenodd" d="M359.354 670L447.295 -4.76837e-06H799.06L711.119 670H359.354Z" fill="#F0E7DC"/>
<path fill-rule="evenodd" clip-rule="evenodd" d="M718.708 670L806.649 -4.76837e-06H1158.41L1070.47 670H718.708Z" fill="#F0E7DC"/>
<path fill-rule="evenodd" clip-rule="evenodd" d="M1080.29 670L1168.23 -4.76837e-06H1520L1432.06 670H1080.29Z" fill="#F0E7DC"/>
<path fill-rule="evenodd" clip-rule="evenodd" d="M0 670L87.9413 -4.76837e-06H439.706L351.765 670H0Z" fill="#F0E7DC"/>
<path fill-rule="evenodd" clip-rule="evenodd" d="M151.777 460.066V209.933H305.786V237.885H184.226V331.297H286.171V359.249H183.985V460.066H151.777Z" fill="#1B4157"/>
<path fill-rule="evenodd" clip-rule="evenodd" d="M468.722 460.066L536.75 209.933H603.808L671.835 460.066H639.511L621.901 398.431H517.934L500.323 460.066H468.722ZM524.447 370.956H615.87L579.203 236.93H560.873L524.447 370.956Z" fill="#1B4157"/>
<path fill-rule="evenodd" clip-rule="evenodd" d="M850.396 460.066V209.933H943.315C961.377 209.933 976.344 212.559 988.464 217.817C1000.58 223.074 1009.61 231.436 1015.79 242.902C1021.97 254.367 1025.06 268.942 1025.06 286.862C1025.06 305.256 1021.5 320.546 1014.13 332.967C1007 345.394 995.834 354.233 980.625 359.727L1026.73 460.066H992.031L949.493 366.655H882.002V460.066H850.396ZM882.002 338.944H944.025C955.908 338.944 965.175 336.791 972.304 332.253C979.434 327.715 984.424 321.738 987.513 313.855C990.603 305.971 992.031 297.131 992.031 287.099C992.031 270.376 987.991 257.954 980.148 249.829C972.304 241.709 959.948 237.408 943.315 237.408H882.002V338.944Z" fill="#1B4157"/>
<path fill-rule="evenodd" clip-rule="evenodd" d="M1189.66 460.066L1256.94 209.933H1323.27L1390.54 460.066H1358.58L1341.16 398.431H1238.33L1220.91 460.066H1189.66ZM1244.53 370.956H1334.96L1298.69 236.93H1280.56L1244.53 370.956Z" fill="#1B4157"/>
</svg>
